<?xml version="1.0" encoding="iso-8859-1"?>
<!-- Generator: Adobe Illustrator 19.1.1, SVG Export Plug-In . SVG Version: 6.00 Build 0)  -->
<svg version="1.1" id="Layer_1" xmlns="http://www.w3.org/2000/svg" xmlns:xlink="http://www.w3.org/1999/xlink" x="0px" y="0px"
	 viewBox="0 0 48 48" style="enable-background:new 0 0 48 48;" xml:space="preserve">
<path style="fill:#FFC107;" d="M9,23.684V11H7v12.684c-1.163,0.413-2,1.512-2,2.816c0,1.656,3,6,3,6s3-4.344,3-6
	C11,25.196,10.163,24.097,9,23.684z"/>
<rect x="17" y="17" style="fill:#BF360C;" width="16" height="18"/>
<path style="fill:#FF9800;" d="M25,39c-2.193,0-5-6-5-6v-6h10v6C30,33,27.192,39,25,39"/>
<path style="fill:#FFB74D;" d="M34,23c0,4.971-4.029,9-9,9c-4.972,0-9-4.029-9-9v-7c0-4.971,18-7.635,18,0V23z M25,42
	c4.42,0,5-9,5-9s-2.507,4-5,4s-5-4-5-4S20.58,42,25,42"/>
<path style="fill:#784719;" d="M28,23c0-0.551,0.448-1,1-1s1,0.449,1,1s-0.448,1-1,1S28,23.551,28,23 M20,23c0,0.551,0.448,1,1,1
	s1-0.449,1-1s-0.448-1-1-1S20,22.449,20,23"/>
<g>
	<path style="fill:#455A64;" d="M34,16L34,16l9-5L25,0L7,11l9,5C16,11.029,34,8.365,34,16z"/>
	<path style="fill:#455A64;" d="M30,33c0,0-0.58,7-5,7c-4.42,0-5-7-5-7S9,34.986,9,46h32C41,35.025,30,33,30,33z"/>
</g>
<path style="fill:#FF5722;" d="M17,12c-3.25,0-5,3.732-5,3.732c-1.104,3.37-2,7.732-2,13.553L17,34V21l12-7l4,5v15l7-6
	c0-2.172-0.196-7.825-2-12.569c0,0-1-3.431-5-3.431S20.25,12,17,12z"/>
<path style="fill:#62808C;" d="M34,16c0,0-4-1-9-1s-9,1-9,1c0-4,1-6,1-6s1.376-2,8.25-2C32.125,8,33,10,33,10S34,12,34,16L34,16z"/>
</svg>
